<svg height="30pt" viewBox="0 -38 512 512" width="30pt" xmlns="http://www.w3.org/2000/svg" xmlns:xlink="http://www.w3.org/1999/xlink"><linearGradient id="a" gradientUnits="userSpaceOnUse" x1="0" x2="512" y1="218" y2="218"><stop offset="0" stop-color="#80d8ff"/><stop offset="1" stop-color="#ea80fc"/></linearGradient><path d="m492 76h-216v-56c0-11.046875-8.953125-20-20-20h-160c-11.046875 0-20 8.953125-20 20v56h-56c-11.046875 0-20 8.953125-20 20v320c0 11.046875 8.953125 20 20 20h472c11.046875 0 20-8.953125 20-20v-320c0-11.046875-8.953125-20-20-20zm-20 320h-432v-280h56c11.046875 0 20-8.953125 20-20v-56h120v56c0 11.046875 8.953125 20 20 20h216zm0 0" fill="url(#a)"/></svg>